<svg xmlns="http://www.w3.org/2000/svg" version="1.1" xmlns:xlink="http://www.w3.org/1999/xlink" xmlns:svgjs="http://svgjs.dev/svgjs" viewBox="0 0 1422 800" opacity="1"><defs><linearGradient x1="50%" y1="0%" x2="50%" y2="100%" id="ssscribble-grad"><stop stop-color="hsl(0, 0%, 86%)" stop-opacity="1" offset="0%"></stop><stop stop-color="hsl(0, 0%, 17%)" stop-opacity="1" offset="100%"></stop></linearGradient></defs><g fill="none" stroke-width="1.5" stroke="url(#ssscribble-grad)" stroke-linecap="round"><path d="M964.31 741.19C1041.96 761.9 1202.91 780.33 1393.76 795.84 1558.35 810.48 1644.15 820.53 1628.67 824.39 1518.48 825.21 1346.42 817.35 1161.36 799.13 1008.96 776.22 928 741.81 932.52 696.12 1017.67 648.18 1155.87 592.67 1309.87 533.76 1492.08 461 1460.03 414.1 1269.98 474.6 1115.51 553.59 973.04 659.96 860.82 786.89 787.15 918.08 759.32 1044.2 772.54 1148.46 822.34 1214 894.77 1232.18 976.58 1196.51 1064.62 1113.88 1142.36 993.55 1203.51 855.55 1264.2 684.7 1264.05 688.58 1220.18 888.57 1179.05 1056.82 1134.6 1209.94 1090.73 1312.2 1043.67 1338.66 1000.87 1281.41 964.44 1151.54 927.39 983.18 898.05 815.55 877.34 693.08 856.63 651.07 845.04 698.38 841.75 819.45 837.84 984.7 840.89 1149.17 848.88 1272.9 853.7 1330.01 859.78 1306.32 863.34 1210.39 858.19 1063.05 844.28 897.43 816.79 747.18 774.27 637.64 713.15 588.33 631.52 602.26 536.36 674.1 425.61 784.55 305.65 910.26 191.91 1033.97 88.66 1130.58 9.23 1187.14 -33.61 1199.74 -34.23 1166.1 12.29 1094.38 97.36 991.85 213.98 873.54 344 752.71 457.99 634.57 538.13 532.8 562.45 452.29 519.29 392.23 411.56 355.87 254.7 339.8 82.23 342.1 -72.84 357.45 -173.17 380.24 -192.87 412.13 -125.39 444.19 15.31 472.69 188.68 503.44 350.85 527.16 453.05 542.48 460.53 557.59 368.65 563.76 199.95 560.85 5.01 557.67 -158.03 545.79 -235.68 525.08 -201.71 504.37 -68.06 475.32 120.38 438.17 306.9 400.75 434.88 354.82 470.37 300.66 406.16 246.29 265.91 184.2 93.25 115.88 -67.49 49.8 -169.58 -19.04 -189.47 -86.82 -124.76 -145.51 7.68 -195.86 174.68 -232.18 343.6 -250.12 477.32 -246.79 553.92 -218.66 564.7 -170.07 513.64 -99.14 418.19 -10.63 294.32 80.56 170.97 170.43 68.87 245.82 -2.62 290.41 -29.98 298.22 -14.08 261.18 41.05 180.18 126.34 60.52 229.28 -84.74 345.25 -232.02 458.72 -362.55 561.68 -452.87 655.7 -485.3 731.44 -452.88 789.14 -358.54 833.04 -223.48 861.96 -71.35 880.03 64.31 888.96 148.58 892.85 162.4 895.57 97.33 894.53 -34.37 896.35 -204.92 903.3 -374.27 909.43 -499.46 922.39 -548.91 943.11 -506.94 963.82 -384.5 991.78 -214.77 1025.99 -42.3 1059.38 91.67 1097.32 155.05 1137.42 136.61 1173.76 42.36 1208.23 -100.85 1236.87 -257.42 1256.38 -395.71 1264.24 -482.29 1256.24 -501.38 1234.43 -451.49 1193.69 -343.28 1133.68 -199.63 1064.72 -43.15 984.27 97.24 900.22 201.45 829.2 258.68 774.73 263.57 749.23 222.5 762.96 142.7 818.76 42.43 917.4 -61.61 1046.65 -161.41 1195.85 -239.34 1344.18 -288.69 1464.08 -309.58 1538.2 -298.73 1548.99 -261.09 1493.95 -199.93 1380.3 -123.07 1229.86 -38.23 1081.32 54.68 965.75 145.19 916.22 229.02 951.3 310.61 1066.87 381.79 1239.31 442.29 1423.65 498.08 1573.8 544.31 1645.99 582.54 1618.5 617.75 1496.61 647.45 1314.18 673.15 1129.83 697.97 998.28 720.48 964.31 741.19Q964.31 741.19 964.31 741.19" opacity="0.27"></path><path d="M940.32 640.19C1012.97 660.08 1163.94 673.27 1346.72 679.62 1511.78 685.43 1610.16 683.43 1617.44 673.05 1534.01 661.22 1383.1 640.23 1205.15 610.17 1040.96 579.34 930.11 540.92 893.36 497.16 934.88 457.6 1039.37 418.48 1178.48 384.91 1325.47 365.51 1444.82 360.63 1514.81 375.96 1526.6 414.34 1477.87 477.52 1380.99 565.78 1249.36 671.19 1106.32 791.23 971.65 916.09 855.99 1029.52 774.46 1123.35 730.29 1184.18 722.69 1202.5 747.07 1174.48 794.07 1100.68 860.69 994.55 932.85 867.69 1002.02 741.02 1070.2 641.53 1125.4 585.19 1165.58 587.49 1196.35 652.47 1211.85 772.04 1214.45 927.11 1209.01 1086.77 1194.72 1221.59 1174.89 1301.86 1151.11 1309.32 1125.57 1240.45 1100.62 1108.2 1074.68 944.89 1051.29 785.46 1031.41 669.09 1011.52 627 995.62 667.38 982.84 777.49 969.06 932.53 956.44 1093.16 942.72 1223.03 925.06 1297.09 902.51 1298.2 871.88 1229.13 833.21 1104.27 782.4 949.93 717.17 795.93 642.54 666.55 553.74 584.45 452.91 558.72 351.09 590.1 247.24 667.97 149.98 774.82 72.34 896.57 18.36 1009.25 -2.48 1097.13 13.24 1153.4 67.46 1168.59 157.07 1144.43 265.68 1084.82 383.9 998.29 492.05 895.85 565.46 782.34 592.05 671.4 559.55 570.58 468.86 479.84 330.25 407.29 165.52 353.18 -51.66 303.66 -96.97 287.82 104.95 302.11 271.67 317.77 413.09 331.51 488.85 340.86 473.89 351.83 369.66 356.32 200.66 353.17 13.96 350.28 -139.02 339.16 -211.67 319.27 -181.23 299.4 -57.66 271.23 120.38 235.4 303.4 199.82 439.78 157.17 495.51 108.72 458.75 61.87 343.9 11.3 185.3 -40.42 20.69 -86.87 -104.99 -130.02 -163.66 -165.83 -145.05 -190.33 -53.82 -201.66 87.14 -195.94 251.84 -174.48 405.61 -133.63 522.47 -73.54 587.74 -3.37 593.61 77.97 547.05 163.03 457.26 237.03 346.06 296.27 233.49 329.84 130.02 327.95 55.03 287.96 15.07 208.23 9.84 96.88 39.99 -37.93 98.06 -180.38 180.01 -307.94 274.55 -405.09 372.61 -454.22 474.52 -446.24 568.49 -380.36 650.98 -265.57 726.77 -126.15 788.88 15.24 838.52 128.89 880.92 186.77 913.85 176.19 940.05 94.48 962.34 -43.04 981.46 -209.51 999.56 -368.49 1016.62 -482.55 1034.68 -524.99 1054.56 -482.94 1074.45 -366.6 1095.67 -205.16 1117.34 -37.91 1137.97 98.28 1157.01 173.03 1172.23 173.28 1183.52 100.7 1187.43 -24.6 1181.11 -173.04 1167.54 -316.9 1140.75 -423.54 1099.43 -473.97 1051.4 -461.7 991.03 -389.17 921.76 -271.95 856.35 -127.55 793.5 18.57 742.18 145.41 714.75 239.92 714.17 290.08 747.84 295.25 816.23 257.9 918.51 188.88 1048.04 101.52 1186.66 2.71 1322.69 -90.02 1435.96 -166.99 1506.02 -226.8 1522.31 -260.39 1477.75 -268.12 1381.61 -252.81 1247.12 -216.24 1100.16 -164.2 976.9 -97.98 901.86 -25.26 897.8 48.74 971.01 126.96 1109.63 200.69 1285.45 267.59 1455.28 333.73 1579.65 391.55 1624.11 440.87 1576.09 488.75 1445.59 528.91 1266.52 561.82 1092.39 594.2 970.79 620.3 940.31 640.18Q940.32 640.19 940.32 640.19" opacity="0.95"></path><path d="M916.32 455.28C984.07 474.33 1125.17 484.83 1299.32 487.05 1517.63 486.11 1479.68 445.07 1251.16 408.78 1083.22 385.59 950.43 360.25 877.52 336.05 875.31 320.34 939.43 311.74 1050.98 314.83 1189.56 333.58 1323.08 369.7 1427.33 426 1489.15 499.59 1496.45 591.79 1452.08 699.17 1363.07 810.62 1244.74 923.04 1114.49 1025.97 982.66 1106.13 867.49 1157.39 777.85 1171 715.74 1144.92 685.33 1079.25 682.7 980 705.48 864.46 745.55 744.58 794.99 639.96 854.36 572.4 911.96 552.63 963.04 589.29 1012.72 679.59 1051.42 812.13 1078.59 966.34 1107.2 1170.71 1112.19 1237.08 1096.66 1064.35 1083.71 906.65 1067.4 755.45 1048.35 645.09 1029.29 603.06 1007.94 636.9 983.78 736.26 958.71 880.63 929.11 1035.87 893.45 1169.38 854.74 1257.54 807.5 1281.35 750.29 1238.97 688.55 1139.27 616.01 1001.84 533.31 851.96 449.21 711.6 359.41 604.36 268.75 543.43 188.03 534.13 117.59 573.69 65.44 650.87 38.7 755.61 40.76 867.58 75.6 970.78 137.98 1057.33 226.99 1113.16 333.84 1134.7 439.12 1122.95 533.67 1079.52 600.18 1011.69 622.04 923.39 593.54 825.3 511.87 725.57 387.78 624.81 235.8 533.2 80.23 453.95 -48.31 384.1 -127.96 328.78 -139.71 286.67 -80.77 254.53 39.61 232.48 196.79 217.53 410.01 206.02 425.9 193.15 201.02 182.05 23.1 173.95 -119.92 160.71 -187.67 141.66 -160.55 122.61 -46.78 98.19 120.57 69.18 298.64 40.77 440.96 9 514.36 -24.41 503.8 -55.2 415.9 -84.88 276.29 -110.76 115.77 -130.38 -24.58 -142.18 -114.82 -143.07 -139.5 -133.98 -93.15 -110.86 11.44 -72.31 155.85 -24.35 311.19 36.87 451.34 108.27 558.98 178.63 618.02 248.37 626.14 309.42 585.94 350 509.72 367.27 413.36 354.06 305.95 307.57 207.65 227.96 129.53 118.92 73.71 -6.76 48.92 -139.95 53.54 -264.54 84.49 -361.57 137.4 -419.61 204.89 -427.32 285.86 -383.4 370.36 -291.7 452.81 -165.31 536.89 -29.4 613.14 95.62 679.91 184.59 743.71 216.24 797.65 183.35 842.45 87.86 884.72 -52.98 919.68 -213.82 948.49 -361.97 976.49 -465.12 999.84 -500.93 1018.89 -458.94 1037.95 -348.61 1052.26 -195.48 1061.38 -34.01 1070.49 145.32 1046.79 101.08 1008.24 -87.97 976.05 -231.43 933.64 -351.58 882.58 -427.93 833.15 -450.63 780.85 -415.35 731.17 -330.8 694.95 -209.19 672.4 -70.85 670.81 64.52 695.53 183.61 748.68 270.51 831.75 319.1 937.13 327.99 1061.58 300.51 1193.96 245.33 1315.31 167.37 1415.32 81.12 1478.04 -3.07 1492.43 -83.18 1454.63 -147.03 1366.84 -191.25 1246.54 -218.18 1109.66 -223.94 982.24 -211.4 894.62 -183.2 863.77 -142.41 902.4 -93.67 1006.58 -36.46 1159.33 22.72 1330.6 80.48 1480.97 141.04 1578 196.92 1595.94 246.51 1529.93 296.45 1393.25 339.19 1218.95 374.16 1055.35 409.05 943.48 436.21 916.31 455.27Q916.32 455.28 916.32 455.28" opacity="0.60"></path><path d="M892.31 251.04C955.26 269.27 1086.58 280.03 1251.64 283.88 1471.37 287.08 1494.56 269.89 1296.75 257.01 1132.73 253.16 986.59 252.4 884.62 258 841.89 273.27 862.97 299.44 937.97 339.46 1053.37 392.32 1183.23 460.76 1304.26 544.57 1401.93 636.81 1457.94 738.37 1467.35 843.51 1431.5 940.91 1356.44 1027.47 1254.53 1094.08 1134.06 1132.3 1011.76 1138.26 899.07 1108.15 799.48 1046.37 723.23 955.68 671.7 845.64 643.27 734.64 637.01 633.48 647.72 558.8 674.41 526.37 709.25 542.03 746.81 608.44 790.19 717.64 829.81 856.5 862.9 1004.36 908.36 1182.09 953.05 1196.72 953.03 1020.04 949.76 868.47 938.97 725.51 920.75 621.08 902.52 579.27 877.29 606.94 845.06 695.82 812.36 829.14 771.83 977.62 723.2 1112.37 673.44 1211.66 615.14 1255.63 548.88 1238.93 482.72 1165.85 410.73 1049.78 335.77 911.1 266.63 768.62 200.98 645.1 144.36 555.91 103.74 509.37 80.94 509.13 81.28 549.94 104.72 625.88 153.85 721.82 227.36 823.55 313.97 923.58 411.25 1006.09 507.83 1063.88 585.84 1095.96 638.16 1097.88 652.49 1072.68 621.56 1023.26 545.25 955.52 428.6 876.47 288.6 787.26 141.09 697.36 9.42 611.6 -81.82 527.5 -117.75 452.79 -88.39 388.54 0.22 330.33 134.49 282.49 288.22 243.67 425.07 210.01 517.74 182.9 541.86 160.38 488.13 140.53 366.09 122.82 201.09 105.81 32.43 89.5 -100.73 72.5 -163.68 54.27 -139.66 36.05 -35.4 17.03 121.01 -2.15 292.83 -20.64 438.69 -37.91 527.02 -52.44 540.83 -64.29 480.42 -70.94 363.64 -70.36 214.34 -64.61 68.36 -49.14 -44.75 -22.52 -106.89 10.13 -104.96 54.04 -42.8 108.21 68.65 164.04 208.33 224.9 353.02 286.01 485.72 336.98 586.05 377.6 644.83 400.96 659.33 400.09 632.15 373.16 573 317.21 488.17 235.54 394.31 130.28 303.59 8.74 219.21 -114.5 154.51 -230.74 112.92 -325.67 92.24 -385.47 95.37 -402.9 118.32 -372.64 158.57 -299.72 211.14 -191.06 270.5 -61.95 337.93 63.38 405.32 167.59 469.19 230.39 534.78 236.84 593.78 184.18 644.97 77.88 695.77 -63.88 738.44 -217.72 772.81 -354.66 806.89 -447.16 833.14 -476.71 851.37 -434.94 869.59 -330.54 879.36 -185.74 880.78 -30.55 881.91 106.28 874.22 198.59 857.79 231.68 840.97 201.35 815.73 116.6 783.21 -4.1 752.41 -141.68 717.39 -268.68 681.54 -364.53 653.76 -417.6 632 -418.42 621.67 -369.74 628.65 -278.81 654.57 -159.99 703.34 -30.01 773.02 99 864.85 209.98 975.3 293.29 1092.1 344.93 1210.99 361.72 1319.71 347.38 1402.75 304.66 1452.67 243.13 1459.69 171.81 1422.43 92.74 1342.39 18.31 1228.68 -45.83 1102.96 -101.56 980.94 -140.94 885.74 -163.88 839.84 -173.97 852.75 -169.35 928.25 -153.03 1054.74 -127.04 1212.58 -93.92 1372.17 -57 1499.24 -15.12 1568.34 26.76 1561.57 66.32 1480.28 107.64 1339.78 144.6 1171.56 175.91 1018.75 207.56 916.33 232.81 892.31 251.04Q892.31 251.04 892.31 251.04" opacity="0.25"></path><path d="M868.31 98.84C926.66 116.24 1048.41 129.62 1203.99 139.55 1361.4 150.05 1483.72 158.26 1546.46 165.57 1463.48 187.33 1182.93 220.51 912.64 283.49 816.11 377.99 934.19 518.53 1159.91 699.65 1369.22 877.16 1438.85 1030.91 1357.36 1105.31 1163.38 1069.35 941.53 921.87 760.37 710.46 636.82 545.54 589.88 505.52 592.73 642.68 634.61 899.94 680.26 1150.74 707.32 1240.79 722.36 1200.64 730.08 1107.32 729.7 975.4 729.4 830.4 720.75 695.67 703.35 597.08 685.95 555.64 660.22 577.53 626.64 656.26 593.13 778.31 552.02 918.81 504.17 1052.54 411.49 1222.61 302.55 1181.2 200.36 968.87 137.22 699.93 126.86 515.24 196.78 481.14 324.32 592.77 496.22 775.46 644.6 941.58 680.48 1049.12 569.59 1056.63 324.06 983.4 62.11 849.37 -87.17 695.91 -16.14 555.07 228.64 418.37 489.39 313.74 558.94 238.86 489.48 204.12 362.04 174.76 201.19 149.99 42.17 125.76 -81.33 105.07 -139.68 87.67 -118.63 70.27 -23.62 56.58 121.68 46.92 286.11 37.81 433.25 33.77 533.67 35.69 534.15 44.95 308.55 86.27 43.33 162.67 -87.47 243.21 4.5 339.37 243.74 419.8 509.09 439.42 667.78 381.98 681.32 228.85 568.12 17.14 404.19 -206.8 262.49 -354.69 162.12 -356.84 138.89 -203.38 174.06 40.04 251.54 226.9 345.53 248.55 430.84 65.08 475.94 -75.34 515.4 -220.96 548.02 -346.47 580.89 -428.66 606.33 -452.34 623.73 -410.94 641.12 -312.38 650.07 -175.89 651.08 -27.44 652.35 107.92 646.28 206.38 633.99 253.27 614.3 176.69 583.6 -54.29 566.43 -286.06 591.55 -397.75 672.08 -326.53 826.08 -125.4 1021.4 122.24 1235.29 310.98 1394.09 392.55 1426.15 363.76 1308.72 259.96 1079.59 136.07 876.58 8.58 815.81 -74.66 972.12 -108.86 1262.85 -111.55 1508.25 -81.43 1521.2 -37.57 1427.49 -12.07 1285.47 13.1 1124.48 36.48 982.61 60.44 889.36 81.45 868.31 98.84Q868.31 98.84 868.31 98.84" opacity="0.45"></path><path d="M844.31 51.84C1013.05 84.98 1311.77 120.61 1510.36 164.78 1476.18 217.41 1236.38 293.34 958.28 402.14 797.79 527.84 833.88 683.73 1011.27 850.42 1235.81 983.76 1380.94 1064.95 1396.95 1054.66 1290.65 953.71 1109.14 777.23 918.29 587.22 741.19 480.23 620.76 508.43 553.6 688.98 525.25 945.18 522.29 1160.61 521.94 1210.28 530.58 1062.8 522.36 794.94 489.23 573.08 456.09 550.07 399.6 731.21 328.47 990.37 266.33 1179.86 209.01 1186.2 179.93 1021 189.66 767.58 255.52 550.25 381.54 449.87 521.32 486.62 655.26 622.7 718.13 786.4 658.68 936.58 474.26 1015.11 215.22 1017.21 3.33 955.41 -62.47 850.46 73.72 733.84 327.53 603.77 548.47 491.55 569.86 405.52 358.49 321.82 53.05 263.3 -115.68 230.16 -10.84 197.02 280.65 190.82 534.61 212.02 580.74 235.55 403.77 287.49 145.06 360.13 -39.06 419.33 -32.49 469.72 141.19 480.46 397.74 427.32 613.31 301.23 718.38 107.63 701.05 -99.49 594.74 -274.88 461.75 -346.17 324.46 -280.31 236.23 -92.72 202.21 136.4 204.47 277.35 241.17 252.19 290.22 49.94 349.46 -221.99 400.32 -409.89 433.45 -386.94 466.59 -165.11 480.44 109.46 483.69 269.78 497.13 232.93 520.72 36.38 575.88 -195.53 667.34 -351.81 810.13 -350.31 998.5 -208.83 1182.56 15.68 1336.45 231.45 1397.21 375.84 1335.56 429.57 1159.29 395.95 937.24 313.68 798.05 198.07 821.2 96.75 1029.62 28.47 1312.62 -22.9 1508.45 -38.54 1475.11 -28.68 1233.94 -10.36 949.15 18.71 844.31 51.84Q844.31 51.84 844.31 51.84" opacity="0.41"></path><path d="M820.32 126.47C975.5 157.95 1257.88 206.82 1468.37 275.43 1479.35 349.02 1286.33 449.34 1016.89 575.82 809.98 702.44 766.55 838.14 876.13 957.03 1078.82 1025.91 1263.93 1029.43 1360.97 948.14 1353.36 808.12 1248.2 633.11 1094.31 487.51 914.28 445.57 757.48 534.56 640.28 743.58 548.35 986.86 491.26 1162.88 454.2 1174.83 427.03 1014.22 401.57 757.02 370.09 549.09 338.61 521.65 302.6 681.94 270.39 926.47 248.09 1129.06 247.91 1178.28 285.28 1063.4 347.93 839.71 452.89 609.47 584.4 457.42 689.77 419.75 749.73 491.53 716.08 622.93 577.79 780.22 355.35 902.21 119.88 966.44 -22.46 979.1 -7.26 938.72 176.56 868.81 422.92 774.84 598.02 681.27 574.89 602.81 352.26 521.79 63.5 463.47 -91.67 431.99 1.77 400.5 272.81 397.34 530.22 418.98 616.81 438.07 491.92 474.37 255.09 513.8 37.81 529.16 -32.5 517.71 62.23 456.55 275.28 343.82 508.35 176.64 679.77 -21.9 758.16 -194.57 736.74 -303.69 655.33 -298.83 533.32 -179.58 423.4 22.42 348.09 223.04 291.66 314.87 273.85 247.77 282.98 33.06 301.65 -223.61 330.55 -390.32 362.03 -362.94 393.51 -155.05 426.08 108.54 466.77 281.33 517.01 281.58 592.07 123.49 703.05 -96.71 832.9 -282.67 994.67 -343.44 1165.2 -268.73 1295.15 -90.36 1361.78 121.96 1324.69 303.24 1194.54 425.8 998.8 467.48 818.51 447.12 756.52 376.75 855.04 292.89 1095.37 220.82 1355.29 148.89 1498.13 105.84 1423.74 91.62 1178.51 82.38 913.83 94.98 820.31 126.46Q820.32 126.47 820.32 126.47" opacity="0.50"></path><path d="M796.32 296.64C938.27 326.46 1203.12 381.03 1420.74 458.73 1472.23 537.02 1329.46 637.01 1083.24 749.99 849.75 849.48 737.38 937.9 770.16 990.4 920.74 990.99 1106.66 928.26 1253.53 801.56 1332.22 652.37 1316.84 506.11 1232.19 420.18 1096.31 442.81 949.09 580.47 817.72 802.36 691.98 1022.52 597.02 1156.93 529.92 1134.56 469.66 964.54 426.69 719.24 396.87 525.09 367.04 493.79 351.78 633.79 355.8 861.38 366.66 1070.87 407.35 1156.86 481.42 1092.61 561.1 909.63 659.21 685.63 749.12 500.73 787.81 398.51 760.37 399.47 642.59 477.06 456.64 608.11 235.35 739.71 53.72 840.12 -10.11 910.98 75.51 932.74 287.14 916.99 511.5 875.35 637.29 818.79 574.29 762.86 345.17 701.22 74.27 652.46 -67.67 622.63 14.99 592.8 264.9 583.33 521.05 588.72 641.95 588.41 569.84 590.72 367.5 580.68 138.24 544.76 6.83 473.91 20.46 357.09 164.99 210.72 376.49 36.3 577.62 -133.83 729.27 -250.53 795.39 -286.87 789.5 -215.73 725 -61.89 639.24 135.35 561.75 296.49 482.54 338.91 433.05 235.97 414.1 15 400.5 -224.1 410.22 -370.18 440.03 -338.94 469.85 -144.83 518.37 106.52 588.2 288.09 663.39 322.01 767.13 204.59 898.02 6.3 1027.18 -193.74 1162.07 -304.67 1272.56 -296.26 1324.43 -179.28 1301.15 2.33 1188.61 190.61 1026.57 356.4 850.42 461.95 736.92 507.33 754.31 500.8 912.44 461.48 1163.56 413.68 1387.77 352.39 1476.89 306.65 1367.55 284.6 1122.93 263.14 879.04 266.8 796.31 296.63Q796.32 296.64 796.32 296.64" opacity="0.15"></path><path d="M772.31 502.9C901.42 531.07 1147.79 582.08 1367.91 651.54 1454.27 717.88 1362.55 794.93 1151.33 869.98 911.63 924.41 747.36 953.52 705.27 939.18 784.51 883.49 935.85 778.55 1094.34 637.97 1228.45 507.95 1292.21 410.7 1286.75 390.54 1224.41 470.29 1125.47 641.26 1017.69 860.87 897.84 1049.83 794.74 1142.3 716.11 1089.75 639.24 913.95 586.41 681.65 558.24 501.08 530.08 466.5 527.91 586.95 551.66 795.74 577.17 1006.22 629.03 1121.88 700.07 1105.8 759.03 970.67 811.58 769.81 830.51 572.71 792.56 423.19 688.36 358.09 517.34 371.72 321.93 451.61 137.19 560.51 28.63 665.66 41.39 765.83 180.4 831.16 399.46 861.22 590.03 871.26 665.72 857.06 568.49 830.32 337.49 797.16 85.42 763.66 -43.68 735.49 28.82 707.33 257.22 685.82 507.76 665.86 656.12 639.48 634.84 602.45 476.18 543.6 255.1 464.73 83.35 353.01 24.34 209.44 88.16 60.87 246.52 -88.45 438.01 -205.27 625.5 -255.82 758.74 -224.11 828.34 -103.93 841.41 63.82 812.69 239.43 768.45 353.92 706.56 349.38 657.45 217.71 631.56 -3.6 605.6 -223.27 605.9 -349.46 634.07 -314.94 662.23 -134.4 716.94 103.61 796.01 290.31 875.03 353.76 975.38 277.34 1086.08 109.04 1216.68 -162.78 1211.99 -171.28 1015.01 60.96 860.44 238.46 735.48 383.85 700.98 482.94 789.32 540.69 986.33 557.97 1228.05 552.35 1407.36 526.12 1444.67 500.3 1307.18 487.09 1067.51 470.75 844.82 474.73 772.31 502.9Q772.31 502.9 772.31 502.9" opacity="0.09"></path><path d="M748.32 673.23C865.16 699.74 1092.32 739.58 1310.52 787.52 1425.31 830.4 1382.84 871.04 1215.04 897.26 988.14 903.06 793 877.68 687.64 812.52 689.42 724.04 780.82 607.08 914.54 483.31 1063.78 394.49 1177.05 357.06 1237.74 399.68 1253.12 523.65 1221.65 711.07 1163.48 914.82 1083.37 1066.91 1002.35 1118.8 933.9 1040.71 862.51 862.64 811.41 644.29 784.9 477.09 758.39 439.82 757.73 541.58 779.12 730.16 813.98 1005 870.67 934.73 808.34 663.21 706.8 488 555.47 371.01 371.48 322.53 203.02 338.86 80.19 401.14 50.81 482.09 128.56 578.67 299.92 659.62 507.4 715.36 655.76 761.37 683.14 781.49 558.13 780.93 329.69 775.42 97.16 757.67 -19.67 731.17 43.12 704.66 249.78 670.64 490.79 626.16 659.56 576.72 685.01 508.37 575.52 416.43 380.1 314.74 190.89 190.13 76.06 52.7 60.44 -69.09 146.64 -169.44 294.92 -220.51 476.21 -206.79 640.76 -121.23 764.27 26.35 868.18 258.38 870.15 270.4 847.89 -22.17 831.72 -220.99 834.53 -328.16 861.04 -290.94 887.54 -123.77 936.49 99.94 1002.65 288.27 1064.49 376.62 1133.53 339.85 1195.06 207.2 1232.37 22.88 1237.43 -140.76 1193.7 -237.14 1111.05 -252.17 984.57 -183.32 838.02 -59.75 724.47 98.76 669.68 253.78 712.87 383.12 855.29 489.14 1068.26 558.18 1283.12 598.32 1412.08 618.04 1401.76 625.62 1243.25 632.73 1012.48 634.79 811.17 646.71 748.31 673.22Q748.32 673.23 748.32 673.23" opacity="0.56"></path><path d="M724.31 748.09C829.26 772.95 1036.72 798.09 1249.03 819.38 1385.52 835.68 1388.35 838.92 1268.76 820.92 1070.66 788.42 866.87 727.18 716.96 637.91 647.92 544.84 667.71 445.07 749.49 362.05 874.75 326.85 998.74 349.79 1095.73 444.33 1169.28 596.04 1200.7 783.21 1198.54 959.97 1174.26 1072.15 1134.33 1086.4 1091.92 987.8 1044.05 810.78 1004.91 607.16 980.05 453.08 955.2 413.71 945.81 497.81 946.81 665.26 942.35 861.87 937.07 1013.72 918.28 1077.54 877.37 1043.51 805.02 924.14 693.17 759.8 557.87 581.68 398.2 433.39 240.37 335.23 126.01 289.27 76.76 293.8 119.93 330.68 243.96 395.62 425.45 463.47 605.34 520.07 706.72 577.71 689.74 614.68 543.65 629.64 321.76 642.35 109.26 635.99 4.31 611.13 58.13 586.28 243.17 544.12 471.16 484.54 653 422.7 718.93 340.52 660.14 239.82 503.8 140.15 319.49 31.37 171.18 -71.87 89.56 -147.05 99.57 -187.26 183.44 -173.89 322.24 -108.3 477.82 10.51 620.45 162.75 748.94 301.21 841.46 398.3 901.49 414.13 940.47 332.11 961.34 166.13 975.99 -40.05 984.66 -217.1 998.86 -306.27 1023.71 -266.95 1048.57 -112.9 1082.9 95.75 1121.1 282.39 1153.31 390.6 1177.66 390.52 1181.75 296.58 1164.79 138.04 1113.19 -26.84 1023.01 -152.68 918.68 -221.35 798.79 -214.83 692.56 -147.07 641.26 -31.47 660.72 103.97 768.22 235.34 942.41 362.92 1149.01 465.09 1323.56 540.66 1400.57 601.73 1348.78 643.71 1176.53 674.27 958.13 699.86 778.13 723.24 724.31 748.09Q724.31 748.09 724.31 748.09" opacity="0.16"></path><path d="M700.32 701.37C793.99 724.57 981.51 736.36 1184.28 734.82 1335.47 729.94 1377.68 706.2 1307.28 660.92 1149.82 609.78 958.22 538.45 786.43 454.4 663.71 382.42 614.8 321.74 631.63 292.64 704.15 312.76 802.11 387.36 899.15 517.36 996.15 679.03 1066.15 851.03 1106.58 992.77 1132.32 1064.51 1135.02 1045.36 1122.94 931.46 1105.54 758.57 1083.09 570.31 1059.89 429.09 1036.7 388.22 1013.86 455.78 987.51 601.62 955.85 784.66 910.95 942.97 845.01 1035.2 764.38 1046.94 656.18 976.38 523.43 849.62 390.64 689.27 259.37 532.76 156.46 404.56 109.22 309.61 130.63 259.07 229.2 244.87 376.83 261.7 547.63 295.03 688.09 330.75 741.49 375.48 686.07 409.08 525.93 425.62 314.21 442.7 121.99 440.56 28.32 417.36 73.66 394.16 237.3 351.02 449.34 290.2 637.2 229.9 736.1 154.11 726.04 69.18 617.38 -6.73 457.25 -78.26 299.54 -130.84 173.92 -152.39 117.71 -135.16 131.43 -70.61 205.22 27.17 318.22 156.18 443.51 292.37 577.69 394.98 694.15 444.75 785.92 416.03 866.27 306.81 924.11 135.32 965.18 -56.66 1001.29 -211.47 1029.34 -283.77 1052.54 -242.94 1075.73 -101.75 1092.98 91.2 1100.62 273.06 1103.3 395.94 1087.66 428.32 1047.52 373.6 995.96 248.87 917.7 97.67 819.28 -39.85 729.73 -145.7 650.02 -192.81 606.61 -182.53 623.28 -123.03 706.97 -29.05 856.73 78.67 1038.59 198.47 1219.52 308 1345.21 399.34 1372.31 484.82 1286.64 550.75 1107.75 599.38 904.67 644.66 745.71 678.17 700.31 701.36Q700.32 701.37 700.32 701.37" opacity="0.43"></path><path d="M676.32 549.36C759.2 570.9 926.77 574.5 1116.91 560.59 1275.97 545.62 1350.28 512.07 1326.63 462.15 1216.74 414.53 1054.47 358.04 883.8 303.26 731.06 269.66 628.72 258.65 582.88 284.4 589.98 351.58 636.77 462.16 702.44 608.33 785.73 763.04 860.82 907.99 917.82 1010.17 970.72 1043.37 1001.68 996.14 1012.31 872.18 1019.77 706.2 1011.93 533.73 990.39 405.09 968.85 363.31 934.63 415.61 886.55 539.87 835.3 705.95 765.15 863.47 674.92 975.19 580.61 1025.4 470.04 1002.46 353.56 920.33 254.69 793.79 176.97 650.78 141.65 515.19 159.25 392.59 236.05 301.39 366.36 242.23 514.62 209.01 657.57 198.79 751.67 201.04 759.52 215.72 672.96 229.79 505.58 235.73 307.14 244.13 135.2 239.05 52.32 217.51 89.89 195.97 232.69 158.99 426.39 109.97 613.56 63.41 736.79 10.15 770.15 -41.84 712.41 -81.42 590.76 -106.67 446.07 -106.65 302.69 -80.68 201.08 -20.41 154.05 73.94 158.07 181.3 209.81 298.77 290.38 402.88 394.64 462.6 500.46 466.23 595.16 400.25 689.6 272.76 765.51 102.99 821.85 -71.4 875.86 -203.97 913.52 -260.68 935.05 -218.94 956.6 -90.32 961.02 86.49 947.63 260.8 931.93 393.1 895.2 452.61 838.1 435.22 780.73 348.83 710.37 223.2 639.3 90.91 591.91 -32.83 571.08 -117.87 595.28 -156.83 670.52 -154.35 797.65 -112.42 963.46 -45.62 1130.57 42.34 1271.55 134.3 1345.11 219.25 1327.57 306.5 1216.62 379.24 1037.78 434.82 852.39 489.36 713.93 527.81 676.31 549.35Q676.32 549.36 676.32 549.36" opacity="0.43"></path><path d="M652.32 345.17C724.96 365.05 872.79 367.18 1047.7 353.56 1208.14 340.89 1306.34 315.01 1324.02 281.03 1263.58 254.7 1142.48 230.25 993 217.87 835.81 228.33 703.38 265.24 610.2 335.78 556.47 434.49 543.88 561.72 560.23 704.94 602.18 838.57 652.12 948.49 697.82 1010.06 748.63 1008.67 785.14 939.38 803.53 810.44 821.53 653.83 821.12 497.46 801.24 381.09 781.36 339 742.95 377.41 687.45 480.51 631.57 627.1 558.89 777.4 473.61 899.54 393.46 978.9 310.78 998.15 238.19 961.89 191.19 878.81 175.24 766.32 202.91 644.53 270.03 518.44 378.88 408.11 515.37 320.14 644.15 248.21 747.42 198.86 793.28 166.77 761.04 146.1 651.51 133.32 483.4 122.08 300.82 113.93 148.96 101.29 76.32 81.41 106.76 61.53 229.44 35.34 403.03 6 583.46 -20.25 722.04 -43.63 791.06 -57.42 782.47 -59.79 707.43 -43.18 593.5 -1.89 457.92 55.42 337.19 137.21 250.06 237.24 196.26 332.97 186.13 421.88 210.56 484.27 262.87 499.83 331.16 462.74 402.35 368.8 481.57 232.09 551.72 70.47 607 -83.78 662.81 -194.55 701.75 -236.99 721.63 -194.9 741.52 -78.53 741.42 81.86 723.11 246.14 705.33 382.75 671.35 463.36 626.59 479.32 589.85 432.33 554.29 340.24 532.62 227.31 538.82 104.79 577.48 1.13 657.32 -71.51 770.5 -115.99 914.8 -124.35 1071.08 -104.17 1205.72 -61.14 1298.61 -3.96 1321.8 56.82 1267.38 125.26 1140.14 187.31 967.4 237.47 801.48 288.58 682.79 325.28 652.31 345.16Q652.32 345.17 652.32 345.17" opacity="0.82"></path><path d="M628.31 160.12C691.26 178.35 819.79 184.7 977.46 181.59 1133.38 180.58 1246.89 174.45 1298.11 168.76 1284.21 172.37 1209.94 185.58 1096.28 215.67 957.61 264.35 821.03 337 703.97 434.63 608.03 545.72 544.87 670.15 510.92 794.14 504.79 932.38 559.08 918.43 580.48 746.84 593.11 601.69 591.58 461.51 573.36 357.08 555.13 315.27 521.07 341.27 474.07 424.11 428.82 549.57 374.61 687.27 318.07 811.19 252.67 935.59 240.06 894.47 330.61 766.59 423.79 658.72 538.76 552.2 658.45 456.44 753.14 365.79 811.06 292.18 811.6 235.38 747.02 186.03 623.14 149.12 460.19 121.2 295.48 95.85 163.26 74.81 100.31 56.59 124.33 38.36 227.89 23.81 380.23 14.79 548.7 8.34 693.72 12.09 788.86 29.86 823.19 55.07 796.37 98.66 724.18 161.23 617.1 228.9 503.3 309.25 402.1 393.24 314.23 461.3 257.63 511.54 231.84 529.59 228.94 505.12 248.65 436.11 281.43 324.68 325.43 187.41 371.04 39.33 411.13 -93.16 453.57 -183.02 485.49 -212.72 503.72 -170.91 521.95 -66.48 525.61 77.38 517.54 229.57 511.82 365.72 499.37 461.02 486.95 504.71 485.76 494.87 496.06 439.94 527.05 356.32 580.93 251.3 663.7 148.48 775.46 61.28 900.54 -12.45 1035.95 -58.94 1162.01 -79.53 1253.18 -81.53 1296.34 -64.73 1275.37 -36.75 1193.59 0.51 1058.94 39.8 897.51 75.18 752.2 112.66 652.33 141.9 628.31 160.12Q628.31 160.12 628.31 160.12" opacity="0.61"></path><path d="M604.31 58.87C773.1 92 1061.32 116.05 1249.18 156.02 1245.82 226.86 1065.46 359.9 839.91 560.53 628.76 763.8 506.77 929.38 455.51 953.49 443.59 813.56 437.68 554.88 404.54 333.05 371.41 310.1 314.18 481.72 268.68 713.75 262.51 900.07 332.79 939.74 500.51 856.75 682.62 691.22 827.83 516.38 806.9 383.6 594.76 260.86 293.1 184.82 124.31 151.68 229.08 118.55 516.38 131.45 765.09 196.76 847.8 272.12 748.92 395.24 580.93 517.35 398.95 556.9 299.5 482.08 279.94 271.47 298.44 15.15 341.3 -169.89 374.44 -146.94 407.58 74.88 427.85 346.99 466.76 511.2 543.73 511.39 694.89 380.96 920.3 221.12 1131.73 63.92 1265.78 -17.4 1207.41 -30.81 983.01 -13.36 709.13 25.72 604.3 58.86Q604.31 58.87 604.31 58.87" opacity="0.15"></path><path d="M580.2 76.69C721.41 106.51 976.31 158.43 1178.37 243.66 1247.99 346.72 1156.7 501.43 985.79 687.82 779.78 842.57 616.73 935.15 515.6 897.63 440.05 739.71 396.89 503.13 367.07 308.98 337.24 277.68 323.57 409.6 347.45 611.11 396.89 807.7 513.4 904.74 680.32 895.94 812.14 806.8 871.8 679.02 780.31 564.53 556.4 444.07 289.41 363.33 148.2 333.5 231.68 303.68 478.14 327.6 723.78 396.38 864.88 459.19 853.63 540.42 750.18 590.47 591.54 560.18 465.17 431.51 401.12 213.06 357.73 -10.31 359.13 -154.31 388.96 -123.01 418.78 71.13 474.2 319.8 569.28 499.58 685.01 558.96 857.92 498.02 1055.65 382.35 1198.19 235.05 1241.08 126.88 1121.83 75.51 898.05 41.96 663.68 46.87 580.2 76.69Q580.2 76.69 580.2 76.69" opacity="0.08"></path><path d="M556.32 207.61C673.15 234.12 891.53 300.1 1090.86 403.13 1210.33 510.36 1201.17 650.35 1103.28 791.43 946.8 885.03 792.15 909.04 676.83 825.73 569.39 662.61 503.08 452.28 476.58 285.09 450.07 247.82 465.86 342.94 527.36 508.03 596.74 695.22 710.02 824.94 831.75 874.44 894.9 861.06 875.94 796.66 737.04 721.61 518.28 632.07 289.15 565.18 172.32 538.67 235.12 512.16 438.56 528.54 666.66 572.15 842.59 601.26 906.68 624.28 879.11 602.92 782.14 518.66 677 360.83 606.18 154.21 537.54 -30.3 515.51 -136.17 542.02 -98.9 568.51 68.28 641.03 289.35 755.61 471.91 872.36 574.64 1018.88 578.75 1150.62 519.9 1212.95 413.57 1177 314.95 1020.53 253.66 811.87 196.57 619.17 181.09 556.31 207.6Q556.32 207.61 556.32 207.61" opacity="0.36"></path><path d="M532.32 405.63C625.99 428.83 805.94 491.8 989.12 583.82 1134.85 670.5 1190.15 769.5 1165.79 849.58 1082.41 882.45 973.84 851.2 878.5 740.25 777.49 583.44 709.84 402.31 686.65 261.09 663.45 220.22 686.9 282.57 747.71 408.63 802.86 570.82 875.23 708.26 928.2 792.79 922.16 838.22 842.25 834.42 679.52 805.03 479.34 760.35 289.99 718.48 196.32 695.28 241.67 672.09 402.81 669.76 601.51 674.24 786.45 663.43 901.17 631.03 940.88 555.2 919.34 440.27 866.97 278.23 821.42 99.03 766.11 -44.02 743.83 -115.77 767.03 -74.9 790.2 66.3 856.66 256.84 952.17 430.64 1082.21 586.53 1124.13 530.91 911.16 453.02 729.46 401.21 577.71 382.43 532.31 405.62Q532.32 405.63 532.32 405.63" opacity="0.49"></path><path d="M508.32 601.68C580.96 621.56 722.51 668.13 879.08 729.23 1027.7 781.28 1121.6 828.92 1155.02 849.08 1144.09 832.71 1097.43 765.14 1042.84 644.66 976.99 503.71 927.03 353.45 907.15 237.09 887.27 195 899.34 229.5 930.74 317.12 950.88 444.11 966.51 567.97 951.37 662.53 891.9 740.18 776.9 779.06 613.71 787.24 442.57 784.47 292.96 768.63 220.32 748.75 250.76 728.86 371.7 706.83 533.3 675.15 705.01 632.5 841.63 562.6 926.59 458.89 970.42 338.27 977.83 193.32 972.39 51.75 953.98 -50.43 948.16 -92.99 968.04 -50.9 987.91 65.45 1031.6 223.77 1084.47 379.28 1124.37 514.35 1148.01 603 1130.25 645.43 1071.37 651.33 955.85 634.72 798.72 617.12 651.69 590.48 538.79 581.79 508.31 601.67Q508.32 601.68 508.32 601.68" opacity="0.42"></path><path d="M484.32 727.28C653.11 760.41 920.2 812.07 1069.6 787.01 1122.37 675.05 1076.78 434.94 1043.65 213.09 1010.51 190.08 996.1 342.76 899.89 503.8 707.06 659.39 413.11 713.51 244.32 680.38 349.1 647.24 627.98 533.11 843.07 334.09 981.59 129.63 1025.84 -49.91 1058.98 -26.9 1092.12 194.94 1107.87 461.91 1012.79 617.3 841.15 685.79 589.14 694.13 484.31 727.27Q484.32 727.28 484.32 727.28" opacity="0.86"></path><path d="M460.32 738.54C577.13 765.05 777.99 754.4 924.44 671.34 1037.65 550.5 1064.2 356.26 1037.7 189.09 1011.19 151.82 936.63 233.85 788.68 341.68 607.48 472.94 385.13 540.57 268.32 514.06 331.12 487.55 528.19 371.92 712.21 205.92 880.44 63.34 974.39 -40.17 1000.9 -2.9 1027.41 164.26 981.45 379.99 847.97 535.58 698.7 653.38 523.12 712.03 460.32 738.54Q460.32 738.54 460.32 738.54" opacity="0.69"></path><path d="M436.32 631.55C508.96 651.43 638.05 612.48 747.57 519.62 858.94 419.54 911.73 281.45 891.85 165.09 871.96 123 783.18 149.81 645.74 201.96 510.17 280.29 364.96 327.78 292.32 307.9 322.77 288.02 440.32 204.53 566.3 100.14 704.42 21.93 798.79 -20.99 818.68 21.09 838.56 137.45 780.19 291.66 668.12 417.8 568.2 536.71 466.77 611.66 436.32 631.55Q436.32 631.55 436.32 631.55" opacity="0.16"></path><path d="M412.32 443.66C529.09 470.16 695.05 308.22 668.55 141.09 642.04 103.82 433.09 160.41 316.32 133.91 379.12 107.4 563.83 7.82 590.34 45.09 616.84 212.22 475.12 417.15 412.32 443.66Q412.32 443.66 412.32 443.66" opacity="0.80"></path></g></svg>